<svg xmlns="http://www.w3.org/2000/svg" width="1024" height="1024" viewBox="0 0 1024 1024">
  <rect width="100%" height="100%" fill="black"/>
  <g transform="translate(128,64) scale(0.75)">
    <path d="M512 64c-74 0-140 34-186 86-46-52-112-86-186-86-8 0-14 6-14 14v72c0 8 6 14 14 14h24c22 0 40 18 40 40v64c0 22 18 40 40 40h300c22 0 40-18 40-40v-64c0-22 18-40 40-40h24c8 0 14-6 14-14V164c0-8-6-14-14-14-74 0-140 34-186 86-46-52-112-86-186-86z" fill="none" stroke="#D4AF37" stroke-width="28" stroke-linecap="round" stroke-linejoin="round"/>
    <circle cx="256" cy="320" r="40" fill="#D4AF37"/>
    <circle cx="384" cy="320" r="40" fill="#D4AF37"/>
    <path d="M200 480c60 80 200 120 312 0" fill="none" stroke="#D4AF37" stroke-width="24" stroke-linecap="round" stroke-linejoin="round"/>
  </g>
</svg>
